#!OML:ASF H:\MichaelJackson\Top Level 1\Subject 1\Session 1\male.ASF
:FULLY-SPECIFIED
:DEGREES
1074
root -1.051 15.0035 43.7096 7.23389 -0.592554 3.57877
lowerback -2.05814 -1.13618 -0.752425
upperback -2.14513 -1.54991 -5.18942
thorax -1.17775 -0.811438 -4.95062
lowerneck -6.64322 0.806783 5.65127
upperneck -1.06787 0.621045 2.83488
head 0.778812 0.336764 -0.0468486
rclavicle 7.65321e-015 1.11319e-014
rhumerus 3.39623 -19.4739 5.89505
rradius 24.2819
rwrist -5.8877
rhand -25.0015 -39.874
rfingers 7.12502
rthumb 1.51016 290.152
lclavicle 7.65321e-015 1.11319e-014
lhumerus -58.8096 -37.4532 113.432
lradius 54.2204
lwrist 20.7927
lhand 39.5692 23.9413
lfingers 7.12502
lthumb 62.0371 35.3889
rfemur -32.2705 -24.1011 -4.83449
rtibia 57.2967
rfoot -28.6363 17.2173
rtoes -29.2869
lfemur 2.30562 -30.0477 0.731164
ltibia 15.6777
lfoot -24.4744 25.5408
ltoes -27.4015
1075
root -1.05164 15.0063 43.7082 7.294 -0.515932 3.53601
lowerback -2.1197 -1.1448 -0.725732
upperback -2.14328 -1.55904 -5.1713
thorax -1.14221 -0.815886 -4.94822
lowerneck -6.63882 0.770333 5.64801
upperneck -1.10868 0.574481 2.86763
head 0.764345 0.312686 -0.0374016
rclavicle 3.03147e-014 3.49861e-014
rhumerus 3.32194 -19.5302 5.878
rradius 24.2405
rwrist -5.76298
rhand -25.1277 -39.9849
rfingers 7.12502
rthumb 1.38822 290.04
lclavicle 3.03147e-014 3.49861e-014
lhumerus -58.8196 -37.4605 113.46
lradius 54.2349
lwrist 20.903
lhand 39.4539 24.0028
lfingers 7.12502
lthumb 61.941 35.57
rfemur -32.2914 -24.1083 -4.75837
rtibia 57.274
rfoot -28.6047 17.126
rtoes -29.2692
lfemur 2.13687 -29.8046 0.902189
ltibia 15.6979
lfoot -24.4486 25.2872
ltoes -27.4775
1076
root -1.05216 15.0085 43.7074 7.36652 -0.453709 3.48617
lowerback -2.2067 -1.14549 -0.687286
upperback -2.1404 -1.55681 -5.15892
thorax -1.09093 -0.8147 -4.95905
lowerneck -6.62184 0.733055 5.65294
upperneck -1.17396 0.528148 2.90736
head 0.740044 0.287923 -0.0271324
rclavicle -3.1408e-014 -3.18055e-015
rhumerus 3.24444 -19.6232 5.85615
rradius 24.1928
rwrist -5.65369
rhand -25.2871 -40.1196
rfingers 7.12502
rthumb 1.23428 289.904
lclavicle -3.1408e-014 -3.18055e-015
lhumerus -58.7888 -37.4352 113.439
lradius 54.2363
lwrist 20.9524
lhand 39.4059 24.069
lfingers 7.12502
lthumb 61.9009 35.6857
rfemur -32.3341 -24.1244 -4.6683
rtibia 57.2536
rfoot -28.5817 17.0489
rtoes -29.2572
lfemur 1.96541 -29.5553 1.08037
ltibia 15.7199
lfoot -24.4441 25.0343
ltoes -27.5273
1077
root -1.05221 15.0099 43.7069 7.43914 -0.408168 3.45858
lowerback -2.30191 -1.14019 -0.663658
upperback -2.13563 -1.54613 -5.15886
thorax -1.03238 -0.809084 -4.9745
lowerneck -6.59401 0.696803 5.66278
upperneck -1.25356 0.484273 2.95066
head 0.709468 0.263857 -0.0164883
rclavicle -5.56597e-015 -1.43125e-014
rhumerus 3.16836 -19.7352 5.83396
rradius 24.1419
rwrist -5.56143
rhand -25.46 -40.2635
rfingers 7.12502
rthumb 1.06728 289.759
lclavicle -5.56597e-015 -1.43125e-014
lhumerus -58.7233 -37.3839 113.381
lradius 54.226
lwrist 20.9418
lhand 39.4178 24.1303
lfingers 7.12502
lthumb 61.9109 35.7347
rfemur -32.385 -24.1574 -4.60481
rtibia 57.235
rfoot -28.5695 16.9998
rtoes -29.2537
lfemur 1.81289 -29.3431 1.21505
ltibia 15.7392
lfoot -24.4475 24.8301
ltoes -27.5668
1078
root -1.05196 15.0106 43.7059 7.5046 -0.385902 3.42134
lowerback -2.38372 -1.12574 -0.627882
upperback -2.13212 -1.52406 -5.1595
thorax -0.982073 -0.79799 -4.99715
lowerneck -6.5578 0.663511 5.67662
upperneck -1.33645 0.444937 2.99046
head 0.676578 0.241785 -0.00745353
rclavicle 1.95803e-014 2.22639e-014
rhumerus 3.09885 -19.867 5.81078
rradius 24.0886
rwrist -5.45136
rhand -25.6314 -40.3985
rfingers 7.12502
rthumb 0.901791 289.624
lclavicle 1.95803e-014 2.22639e-014
lhumerus -58.641 -37.3199 113.304
lradius 54.2113
lwrist 20.887
lhand 39.4724 24.1859
lfingers 7.12502
lthumb 61.9564 35.734
rfemur -32.4438 -24.1805 -4.52986
rtibia 57.217
rfoot -28.5705 16.9555
rtoes -29.2734
lfemur 1.69289 -29.1788 1.33425
ltibia 15.7534
lfoot -24.453 24.6956
ltoes -27.5985
1079
root -1.05123 15.0105 43.7046 7.54963 -0.387706 3.38798
lowerback -2.44277 -1.10388 -0.594062
upperback -2.12542 -1.49282 -5.16122
thorax -0.940414 -0.782298 -5.01918
lowerneck -6.51674 0.635694 5.69035
upperneck -1.41511 0.413244 3.02056
head 0.644397 0.223459 -0.0011816
rclavicle 2.23633e-015 3.18055e-014
rhumerus 3.04117 -19.9939 5.79408
rradius 24.036
rwrist -5.32021
rhand -25.7806 -40.5107
rfingers 7.12502
rthumb 0.757617 289.511
lclavicle 2.23633e-015 3.18055e-014
lhumerus -58.5481 -37.2538 113.224
lradius 54.1921
lwrist 20.8107
lhand 39.5412 24.2315
lfingers 7.12502
lthumb 62.0138 35.7082
rfemur -32.4936 -24.1974 -4.4669
rtibia 57.1993
rfoot -28.5862 16.9297
rtoes -29.3073
lfemur 1.62496 -29.0822 1.41034
ltibia 15.7614
lfoot -24.4629 24.645
ltoes -27.6153
1080
root -1.05012 15.0098 43.7027 7.56919 -0.409848 3.35769
lowerback -2.4697 -1.07784 -0.564487
upperback -2.11496 -1.45695 -5.16089
thorax -0.91229 -0.764272 -5.03587
lowerneck -6.47496 0.616787 5.70396
upperneck -1.4827 0.39316 3.03578
head 0.615835 0.211063 0.000817373
rclavicle 6.21202e-015 -1.59028e-014
rhumerus 2.99778 -20.0951 5.78671
rradius 23.9907
rwrist -5.17279
rhand -25.8905 -40.5883
rfingers 7.12502
rthumb 0.651489 289.433
lclavicle 6.21202e-015 -1.59028e-014
lhumerus -58.4554 -37.197 113.153
lradius 54.172
lwrist 20.7355
lhand 39.6021 24.2658
lfingers 7.12502
lthumb 62.0646 35.6791
rfemur -32.5276 -24.2076 -4.417
rtibia 57.1824
rfoot -28.6142 16.9198
rtoes -29.3563
lfemur 1.60911 -29.0373 1.44793
ltibia 15.7623
lfoot -24.4708 24.6618
ltoes -27.6376
1081
root -1.04864 15.0083 43.7004 7.56089 -0.447794 3.33836
lowerback -2.4602 -1.04967 -0.546789
upperback -2.10106 -1.41922 -5.15999
thorax -0.900528 -0.745266 -5.04438
lowerneck -6.43802 0.605779 5.71584
upperneck -1.53021 0.382603 3.03525
head 0.594605 0.203908 -0.00152477
rclavicle 7.60351e-015 -1.59028e-014
rhumerus 2.96803 -20.1707 5.78608
rradius 23.9562
rwrist -5.00399
rhand -25.9609 -40.6327
rfingers 7.12502
rthumb 0.583535 289.388
lclavicle 7.60351e-015 -1.59028e-014
lhumerus -58.3729 -37.1591 113.105
lradius 54.1502
lwrist 20.6723
lhand 39.6441 24.2916
lfingers 7.12502
lthumb 62.0995 35.661
rfemur -32.541 -24.2164 -4.39114
rtibia 57.1682
rfoot -28.6527 16.9309
rtoes -29.4098
lfemur 1.64364 -29.0311 1.44316
ltibia 15.754
lfoot -24.4803 24.7175
ltoes -27.6496
1082
root -1.04676 15.0063 43.6974 7.526 -0.497322 3.33073
lowerback -2.41387 -1.02184 -0.541254
upperback -2.08282 -1.38287 -5.1581
thorax -0.904712 -0.726883 -5.04422
lowerneck -6.40763 0.603791 5.72456
upperneck -1.56001 0.383098 3.01979
head 0.580247 0.202729 -0.00769183
rclavicle -1.31198e-014 -7.63333e-014
rhumerus 2.95169 -20.21 5.79151
rradius 23.9378
rwrist -4.83679
rhand -25.9931 -40.6216
rfingers 7.12502
rthumb 0.552401 289.399
lclavicle -1.31198e-014 -7.63333e-014
lhumerus -58.3004 -37.1443 113.08
lradius 54.1263
lwrist 20.6222
lhand 39.6655 24.3064
lfingers 7.12502
lthumb 62.1174 35.6534
rfemur -32.5362 -24.2275 -4.38962
rtibia 57.1583
rfoot -28.692 16.971
rtoes -29.4503
lfemur 1.71849 -29.036 1.40453
ltibia 15.7375
lfoot -24.4918 24.7813
ltoes -27.659
1083
root -1.04488 15.004 43.6949 7.47517 -0.549777 3.3409
lowerback -2.35578 -0.997946 -0.556827
upperback -2.0606 -1.3517 -5.1574
thorax -0.911332 -0.710821 -5.03319
lowerneck -6.38457 0.610482 5.73164
upperneck -1.56857 0.393833 2.99342
head 0.573966 0.207285 -0.0167218
rclavicle -5.01931e-015 2.06736e-014
rhumerus 2.94544 -20.1973 5.80024
rradius 23.9386
rwrist -4.70456
rhand -25.9929 -40.5873
rfingers 7.12502
rthumb 0.552565 289.434
lclavicle -5.01931e-015 2.06736e-014
lhumerus -58.2439 -37.1519 113.076
lradius 54.1028
lwrist 20.5816
lhand 39.6746 24.3023
lfingers 7.12502
lthumb 62.1249 35.6398
rfemur -32.5173 -24.2517 -4.41683
rtibia 57.1556
rfoot -28.7303 17.0425
rtoes -29.47
lfemur 1.81745 -29.0368 1.33784
ltibia 15.7123
lfoot -24.5099 24.827
ltoes -27.6529
1084
root -1.04292 15.0017 43.6922 7.41194 -0.602193 3.35614
lowerback -2.28354 -0.977156 -0.578917
upperback -2.03324 -1.32485 -5.15608
thorax -0.92081 -0.696819 -5.01765
lowerneck -6.37614 0.623296 5.74001
upperneck -1.55955 0.410794 2.95835
head 0.575786 0.215534 -0.0285159
rclavicle -5.56597e-015 2.8625e-014
rhumerus 2.946 -20.1519 5.80772
rradius 23.954
rwrist -4.6123
rhand -25.9605 -40.5052
rfingers 7.12502
rthumb 0.58385 289.516
lclavicle -5.56597e-015 2.8625e-014
lhumerus -58.2007 -37.1875 113.09
lradius 54.083
lwrist 20.5501
lhand 39.6702 24.2818
lfingers 7.12502
lthumb 62.1212 35.6239
rfemur -32.4905 -24.2836 -4.45585
rtibia 57.1605
rfoot -28.7597 17.1391
rtoes -29.4732
lfemur 1.92864 -29.0103 1.26659
ltibia 15.6792
lfoot -24.5312 24.8295
ltoes -27.6392
1085
root -1.04146 14.9994 43.6898 7.35031 -0.659118 3.3827
lowerback -2.21809 -0.958558 -0.622282
upperback -2.00419 -1.30033 -5.15576
thorax -0.924494 -0.683657 -4.99128
lowerneck -6.37611 0.639966 5.75004
upperneck -1.53833 0.431624 2.92012
head 0.582928 0.226127 -0.0414723
rclavicle 4.67144e-015 -7.95139e-015
rhumerus 2.95419 -20.087 5.80608
rradius 23.9792
rwrist -4.56323
rhand -25.904 -40.3907
rfingers 7.12502
rthumb 0.638436 289.631
lclavicle 4.67144e-015 -7.95139e-015
lhumerus -58.1731 -37.2454 113.117
lradius 54.072
lwrist 20.5271
lhand 39.6576 24.2503
lfingers 7.12502
lthumb 62.1107 35.6056
rfemur -32.4743 -24.3126 -4.50557
rtibia 57.1743
rfoot -28.7767 17.2484
rtoes -29.4633
lfemur 2.03736 -28.9554 1.19163
ltibia 15.6395
lfoot -24.556 24.7958
ltoes -27.619
1086
root -1.04047 14.9973 43.6878 7.2915 -0.716306 3.40069
lowerback -2.16248 -0.942126 -0.662882
upperback -1.97329 -1.27832 -5.1541
thorax -0.921037 -0.671713 -4.96534
lowerneck -6.37965 0.659944 5.76992
upperneck -1.51273 0.455741 2.87738
head 0.592164 0.238431 -0.0573686
rclavicle -1.78906e-015 -8.42847e-014
rhumerus 2.97198 -20.0279 5.78426
rradius 24.0051
rwrist -4.54025
rhand -25.8329 -40.2535
rfingers 7.12502
rthumb 0.707136 289.768
lclavicle -1.78906e-015 -8.42847e-014
lhumerus -58.1639 -37.3206 113.149
lradius 54.0781
lwrist 20.5127
lhand 39.6323 24.2315
lfingers 7.12502
lthumb 62.0897 35.6133
rfemur -32.4656 -24.332 -4.54366
rtibia 57.1943
rfoot -28.78 17.3592
rtoes -29.4363
lfemur 2.13957 -28.8671 1.13704
ltibia 15.5979
lfoot -24.5853 24.7198
ltoes -27.5841
1087
root -1.03988 14.9955 43.6866 7.24017 -0.770438 3.41789
lowerback -2.12764 -0.930187 -0.707206
upperback -1.94012 -1.26141 -5.15326
thorax -0.903983 -0.662166 -4.93862
lowerneck -6.38223 0.682436 5.79787
upperneck -1.49028 0.482843 2.83486
head 0.600346 0.252083 -0.0744537
rclavicle -1.00883e-014 -7.79236e-014
rhumerus 3.00297 -19.9788 5.73971
rradius 24.0256
rwrist -4.54494
rhand -25.7568 -40.1095
rfingers 7.12502
rthumb 0.780658 289.912
lclavicle -1.00883e-014 -7.79236e-014
lhumerus -58.1668 -37.4041 113.182
lradius 54.1011
lwrist 20.5058
lhand 39.6003 24.2237
lfingers 7.12502
lthumb 62.063 35.6389
rfemur -32.463 -24.3454 -4.57898
rtibia 57.2179
rfoot -28.7726 17.4668
rtoes -29.394
lfemur 2.2287 -28.7536 1.09472
ltibia 15.5583
lfoot -24.6201 24.6108
ltoes -27.5458
